<mxfile host="app.diagrams.net" modified="2024-01-26T13:01:00.235Z" agent="Mozilla/5.0 (Windows NT 10.0; Win64; x64) AppleWebKit/537.36 (KHTML, like Gecko) Chrome/120.0.0.0 Safari/537.36" etag="tAex2XVKREDwPaIHPxMi" version="23.0.1" type="github">
  <diagram name="第 1 页" id="17KRty7mNiWVQtVObTok">
    <mxGraphModel dx="858" dy="390" grid="1" gridSize="10" guides="1" tooltips="1" connect="1" arrows="1" fold="1" page="1" pageScale="1" pageWidth="827" pageHeight="1169" math="0" shadow="0">
      <root>
        <mxCell id="0" />
        <mxCell id="1" parent="0" />
        <mxCell id="oT3lM0HYh7EHZdYZHzl3-1" value="" style="rounded=1;whiteSpace=wrap;html=1;rotation=-90;" vertex="1" parent="1">
          <mxGeometry x="95" y="245" width="400" height="200" as="geometry" />
        </mxCell>
        <mxCell id="oT3lM0HYh7EHZdYZHzl3-2" value="" style="endArrow=none;html=1;rounded=0;entryX=0.86;entryY=0.998;entryDx=0;entryDy=0;entryPerimeter=0;" edge="1" parent="1">
          <mxGeometry width="50" height="50" relative="1" as="geometry">
            <mxPoint x="195.7" y="210.4" as="sourcePoint" />
            <mxPoint x="394.3000000000001" y="209.99999999999991" as="targetPoint" />
          </mxGeometry>
        </mxCell>
        <mxCell id="oT3lM0HYh7EHZdYZHzl3-3" value="" style="endArrow=none;html=1;rounded=0;entryX=0.86;entryY=0.998;entryDx=0;entryDy=0;entryPerimeter=0;" edge="1" parent="1">
          <mxGeometry width="50" height="50" relative="1" as="geometry">
            <mxPoint x="195.5" y="277" as="sourcePoint" />
            <mxPoint x="394.5" y="277" as="targetPoint" />
          </mxGeometry>
        </mxCell>
        <mxCell id="oT3lM0HYh7EHZdYZHzl3-4" value="" style="endArrow=none;html=1;rounded=0;entryX=0.86;entryY=0.998;entryDx=0;entryDy=0;entryPerimeter=0;" edge="1" parent="1">
          <mxGeometry width="50" height="50" relative="1" as="geometry">
            <mxPoint x="195.5" y="346" as="sourcePoint" />
            <mxPoint x="394.5" y="346" as="targetPoint" />
          </mxGeometry>
        </mxCell>
        <mxCell id="oT3lM0HYh7EHZdYZHzl3-5" value="" style="endArrow=none;html=1;rounded=0;entryX=0.86;entryY=0.998;entryDx=0;entryDy=0;entryPerimeter=0;" edge="1" parent="1">
          <mxGeometry width="50" height="50" relative="1" as="geometry">
            <mxPoint x="195.5" y="414" as="sourcePoint" />
            <mxPoint x="394.5" y="414" as="targetPoint" />
          </mxGeometry>
        </mxCell>
        <mxCell id="oT3lM0HYh7EHZdYZHzl3-6" value="" style="endArrow=none;html=1;rounded=0;entryX=0.86;entryY=0.998;entryDx=0;entryDy=0;entryPerimeter=0;" edge="1" parent="1">
          <mxGeometry width="50" height="50" relative="1" as="geometry">
            <mxPoint x="195.5" y="481" as="sourcePoint" />
            <mxPoint x="394.5" y="481" as="targetPoint" />
          </mxGeometry>
        </mxCell>
        <mxCell id="oT3lM0HYh7EHZdYZHzl3-7" value="政府" style="text;html=1;strokeColor=none;fillColor=none;align=center;verticalAlign=middle;whiteSpace=wrap;rounded=0;" vertex="1" parent="1">
          <mxGeometry x="265" y="170" width="60" height="30" as="geometry" />
        </mxCell>
        <mxCell id="oT3lM0HYh7EHZdYZHzl3-8" value="监管机构与协会" style="text;html=1;strokeColor=none;fillColor=none;align=center;verticalAlign=middle;whiteSpace=wrap;rounded=0;" vertex="1" parent="1">
          <mxGeometry x="265" y="230" width="60" height="30" as="geometry" />
        </mxCell>
        <mxCell id="oT3lM0HYh7EHZdYZHzl3-9" value="公司" style="text;html=1;strokeColor=none;fillColor=none;align=center;verticalAlign=middle;whiteSpace=wrap;rounded=0;" vertex="1" parent="1">
          <mxGeometry x="265" y="300" width="60" height="30" as="geometry" />
        </mxCell>
        <mxCell id="oT3lM0HYh7EHZdYZHzl3-10" value="管理" style="text;html=1;strokeColor=none;fillColor=none;align=center;verticalAlign=middle;whiteSpace=wrap;rounded=0;" vertex="1" parent="1">
          <mxGeometry x="265" y="370" width="60" height="30" as="geometry" />
        </mxCell>
        <mxCell id="oT3lM0HYh7EHZdYZHzl3-11" value="职工" style="text;html=1;strokeColor=none;fillColor=none;align=center;verticalAlign=middle;whiteSpace=wrap;rounded=0;" vertex="1" parent="1">
          <mxGeometry x="265" y="440" width="60" height="30" as="geometry" />
        </mxCell>
        <mxCell id="oT3lM0HYh7EHZdYZHzl3-12" value="工作&lt;br&gt;危险作业过程" style="text;html=1;strokeColor=none;fillColor=none;align=center;verticalAlign=middle;whiteSpace=wrap;rounded=0;" vertex="1" parent="1">
          <mxGeometry x="250" y="500" width="90" height="30" as="geometry" />
        </mxCell>
        <mxCell id="oT3lM0HYh7EHZdYZHzl3-13" value="" style="endArrow=classic;html=1;rounded=0;" edge="1" parent="1">
          <mxGeometry width="50" height="50" relative="1" as="geometry">
            <mxPoint x="140" y="190" as="sourcePoint" />
            <mxPoint x="190" y="190" as="targetPoint" />
          </mxGeometry>
        </mxCell>
        <mxCell id="oT3lM0HYh7EHZdYZHzl3-14" value="" style="endArrow=classic;html=1;rounded=0;" edge="1" parent="1">
          <mxGeometry width="50" height="50" relative="1" as="geometry">
            <mxPoint x="414" y="150" as="sourcePoint" />
            <mxPoint x="414" y="270" as="targetPoint" />
          </mxGeometry>
        </mxCell>
        <mxCell id="oT3lM0HYh7EHZdYZHzl3-15" value="" style="endArrow=classic;html=1;rounded=0;" edge="1" parent="1">
          <mxGeometry width="50" height="50" relative="1" as="geometry">
            <mxPoint x="210" y="200" as="sourcePoint" />
            <mxPoint x="210" y="230" as="targetPoint" />
          </mxGeometry>
        </mxCell>
        <mxCell id="oT3lM0HYh7EHZdYZHzl3-16" value="" style="endArrow=classic;html=1;rounded=0;" edge="1" parent="1">
          <mxGeometry width="50" height="50" relative="1" as="geometry">
            <mxPoint x="211" y="261" as="sourcePoint" />
            <mxPoint x="211" y="291" as="targetPoint" />
          </mxGeometry>
        </mxCell>
        <mxCell id="oT3lM0HYh7EHZdYZHzl3-17" value="" style="endArrow=classic;html=1;rounded=0;" edge="1" parent="1">
          <mxGeometry width="50" height="50" relative="1" as="geometry">
            <mxPoint x="210" y="330" as="sourcePoint" />
            <mxPoint x="210" y="360" as="targetPoint" />
          </mxGeometry>
        </mxCell>
        <mxCell id="oT3lM0HYh7EHZdYZHzl3-18" value="" style="endArrow=classic;html=1;rounded=0;" edge="1" parent="1">
          <mxGeometry width="50" height="50" relative="1" as="geometry">
            <mxPoint x="210" y="400" as="sourcePoint" />
            <mxPoint x="210" y="430" as="targetPoint" />
          </mxGeometry>
        </mxCell>
        <mxCell id="oT3lM0HYh7EHZdYZHzl3-19" value="" style="endArrow=classic;html=1;rounded=0;" edge="1" parent="1">
          <mxGeometry width="50" height="50" relative="1" as="geometry">
            <mxPoint x="210" y="470" as="sourcePoint" />
            <mxPoint x="210" y="500" as="targetPoint" />
          </mxGeometry>
        </mxCell>
        <mxCell id="oT3lM0HYh7EHZdYZHzl3-20" value="" style="endArrow=classic;html=1;rounded=0;" edge="1" parent="1">
          <mxGeometry width="50" height="50" relative="1" as="geometry">
            <mxPoint x="380" y="220" as="sourcePoint" />
            <mxPoint x="380" y="190" as="targetPoint" />
          </mxGeometry>
        </mxCell>
        <mxCell id="oT3lM0HYh7EHZdYZHzl3-21" value="" style="endArrow=classic;html=1;rounded=0;" edge="1" parent="1">
          <mxGeometry width="50" height="50" relative="1" as="geometry">
            <mxPoint x="380" y="290" as="sourcePoint" />
            <mxPoint x="380" y="260" as="targetPoint" />
          </mxGeometry>
        </mxCell>
        <mxCell id="oT3lM0HYh7EHZdYZHzl3-22" value="" style="endArrow=classic;html=1;rounded=0;" edge="1" parent="1">
          <mxGeometry width="50" height="50" relative="1" as="geometry">
            <mxPoint x="380" y="360" as="sourcePoint" />
            <mxPoint x="380" y="330" as="targetPoint" />
          </mxGeometry>
        </mxCell>
        <mxCell id="oT3lM0HYh7EHZdYZHzl3-23" value="" style="endArrow=classic;html=1;rounded=0;" edge="1" parent="1">
          <mxGeometry width="50" height="50" relative="1" as="geometry">
            <mxPoint x="380" y="430" as="sourcePoint" />
            <mxPoint x="380" y="400" as="targetPoint" />
          </mxGeometry>
        </mxCell>
        <mxCell id="oT3lM0HYh7EHZdYZHzl3-24" value="" style="endArrow=classic;html=1;rounded=0;" edge="1" parent="1">
          <mxGeometry width="50" height="50" relative="1" as="geometry">
            <mxPoint x="380" y="490" as="sourcePoint" />
            <mxPoint x="380" y="460" as="targetPoint" />
          </mxGeometry>
        </mxCell>
        <mxCell id="oT3lM0HYh7EHZdYZHzl3-25" value="法律" style="text;html=1;strokeColor=none;fillColor=none;align=center;verticalAlign=middle;whiteSpace=wrap;rounded=0;" vertex="1" parent="1">
          <mxGeometry x="180" y="230" width="60" height="30" as="geometry" />
        </mxCell>
        <mxCell id="oT3lM0HYh7EHZdYZHzl3-26" value="规章" style="text;html=1;strokeColor=none;fillColor=none;align=center;verticalAlign=middle;whiteSpace=wrap;rounded=0;" vertex="1" parent="1">
          <mxGeometry x="180" y="300" width="60" height="30" as="geometry" />
        </mxCell>
        <mxCell id="oT3lM0HYh7EHZdYZHzl3-27" value="公司制度" style="text;html=1;strokeColor=none;fillColor=none;align=center;verticalAlign=middle;whiteSpace=wrap;rounded=0;" vertex="1" parent="1">
          <mxGeometry x="190" y="370" width="60" height="30" as="geometry" />
        </mxCell>
        <mxCell id="oT3lM0HYh7EHZdYZHzl3-28" value="计划" style="text;html=1;strokeColor=none;fillColor=none;align=center;verticalAlign=middle;whiteSpace=wrap;rounded=0;" vertex="1" parent="1">
          <mxGeometry x="180" y="440" width="60" height="30" as="geometry" />
        </mxCell>
        <mxCell id="oT3lM0HYh7EHZdYZHzl3-29" value="行动" style="text;html=1;strokeColor=none;fillColor=none;align=center;verticalAlign=middle;whiteSpace=wrap;rounded=0;" vertex="1" parent="1">
          <mxGeometry x="180" y="500" width="60" height="30" as="geometry" />
        </mxCell>
        <mxCell id="oT3lM0HYh7EHZdYZHzl3-30" value="" style="endArrow=classic;html=1;rounded=0;" edge="1" parent="1">
          <mxGeometry width="50" height="50" relative="1" as="geometry">
            <mxPoint x="414" y="530" as="sourcePoint" />
            <mxPoint x="414" y="480" as="targetPoint" />
          </mxGeometry>
        </mxCell>
        <mxCell id="oT3lM0HYh7EHZdYZHzl3-31" value="快速的技术变革" style="text;html=1;strokeColor=none;fillColor=none;align=center;verticalAlign=middle;whiteSpace=wrap;rounded=0;" vertex="1" parent="1">
          <mxGeometry x="430" y="500" width="60" height="30" as="geometry" />
        </mxCell>
        <mxCell id="oT3lM0HYh7EHZdYZHzl3-32" value="变化的能力和教育水平" style="text;html=1;strokeColor=none;fillColor=none;align=center;verticalAlign=middle;whiteSpace=wrap;rounded=0;" vertex="1" parent="1">
          <mxGeometry x="435" y="400" width="50" height="30" as="geometry" />
        </mxCell>
        <mxCell id="oT3lM0HYh7EHZdYZHzl3-33" value="变化的市场环境与资金压力" style="text;html=1;strokeColor=none;fillColor=none;align=center;verticalAlign=middle;whiteSpace=wrap;rounded=0;" vertex="1" parent="1">
          <mxGeometry x="427.5" y="300" width="65" height="30" as="geometry" />
        </mxCell>
        <mxCell id="oT3lM0HYh7EHZdYZHzl3-34" value="变化的政治氛围与公众认知" style="text;html=1;strokeColor=none;fillColor=none;align=center;verticalAlign=middle;whiteSpace=wrap;rounded=0;" vertex="1" parent="1">
          <mxGeometry x="427.5" y="215" width="65" height="30" as="geometry" />
        </mxCell>
        <mxCell id="oT3lM0HYh7EHZdYZHzl3-35" value="" style="endArrow=classic;html=1;rounded=0;" edge="1" parent="1">
          <mxGeometry width="50" height="50" relative="1" as="geometry">
            <mxPoint x="420" y="314.76" as="sourcePoint" />
            <mxPoint x="380" y="314.76" as="targetPoint" />
          </mxGeometry>
        </mxCell>
        <mxCell id="oT3lM0HYh7EHZdYZHzl3-36" value="" style="endArrow=classic;html=1;rounded=0;" edge="1" parent="1">
          <mxGeometry width="50" height="50" relative="1" as="geometry">
            <mxPoint x="435" y="414.76" as="sourcePoint" />
            <mxPoint x="395" y="414.76" as="targetPoint" />
          </mxGeometry>
        </mxCell>
        <mxCell id="oT3lM0HYh7EHZdYZHzl3-37" value="民意" style="text;html=1;strokeColor=none;fillColor=none;align=center;verticalAlign=middle;whiteSpace=wrap;rounded=0;" vertex="1" parent="1">
          <mxGeometry x="130" y="160" width="60" height="30" as="geometry" />
        </mxCell>
      </root>
    </mxGraphModel>
  </diagram>
</mxfile>
